<?xml version="1.0" encoding="UTF-8" standalone="no"?>
<!-- Created with Inkscape (http://www.inkscape.org/) -->

<svg
   width="22.735443mm"
   height="51.408218mm"
   viewBox="0 0 22.735443 51.408218"
   version="1.1"
   id="svg5"
   xmlns="http://www.w3.org/2000/svg"
   xmlns:svg="http://www.w3.org/2000/svg">
  <defs
     id="defs2" />
  <g
     id="layer1"
     transform="translate(-101.97185,-5.1934813)">
    <path
       id="path346-5-6"
       style="color:#000000;fill:#000000;stroke-linecap:square;stroke-linejoin:bevel;-inkscape-stroke:none"
       d="m 109.2693,5.1934814 -0.85111,1.5291057 c 0,0 -3.20166,5.7522239 -4.90461,14.7303669 -1.70935,9.011783 -1.53686,20.332092 -1.53686,20.332092 l 0.0233,1.750281 3.49797,-0.04496 -0.0233,-1.750281 c 0,0 -0.0819,-7.498921 0.76429,-14.844572 0.93593,0.212105 2.10938,0.569762 2.93264,1.143599 1.26518,0.881878 1.92308,2.128534 2.16266,2.657203 l 0.0212,10.965738 0.004,1.863815 3.59769,-0.0057 -0.004,-1.863815 -0.004,-1.960087 0.017,-8.842871 c 0.17833,-0.409475 0.83806,-1.778555 2.28565,-2.749703 0.8991,-0.603182 2.20042,-0.969569 3.19774,-1.178739 0.13978,1.243663 0.32548,3.04568 0.478,5.073075 0.2811,3.736607 0.405,8.226642 -0.0134,10.661881 -0.87443,5.089588 -4.3186,10.578166 -4.3186,10.578166 l 1.99832,3.363619 0.94517,-1.470711 c 0,0 3.771,-5.737906 4.82606,-11.878862 0.54637,-3.180032 0.34181,-7.673103 0.0527,-11.515576 -0.28907,-3.842473 -0.70125,-6.974768 -0.70125,-6.974768 -0.0786,-0.592527 -0.1551,-1.185337 -0.23475,-1.777712 l -1.81149,0.111683 c 0,0 -3.56105,0.100301 -6.42183,2.019515 -0.84731,0.568436 -1.52938,1.230909 -2.06964,1.878955 -0.51793,-0.640192 -1.17037,-1.29409 -1.98127,-1.859318 -1.50528,-1.049227 -3.21307,-1.55976 -4.46175,-1.807642 0.0685,-0.412008 0.13944,-0.820645 0.21549,-1.221631 1.60585,-8.466206 4.52169,-13.6797847 4.52169,-13.6797847 z" />
    <path
       id="path15226"
       style="color:#000000;fill:#000000;stroke-linecap:square;stroke-linejoin:bevel;-inkscape-stroke:none"
       d="m 109.2693,5.1934814 -0.85111,1.5291057 c 0,0 -3.20166,5.7522239 -4.90461,14.7303669 -1.70935,9.011783 -1.53686,20.332092 -1.53686,20.332092 l 0.0233,1.750281 3.49797,-0.04496 -0.0233,-1.750281 c 0,0 -0.0819,-7.498921 0.76429,-14.844572 0.93593,0.212105 2.10938,0.569762 2.93264,1.143599 1.26518,0.881878 1.92308,2.128534 2.16266,2.657203 l 0.0212,10.965738 0.004,1.863815 3.59769,-0.0057 -0.004,-1.863815 -0.004,-1.960087 0.017,-8.842871 c 0.17833,-0.409475 0.83806,-1.778555 2.28565,-2.749703 0.8991,-0.603182 2.20042,-0.969569 3.19774,-1.178739 0.13978,1.243663 0.32548,3.04568 0.478,5.073075 0.2811,3.736607 0.405,8.226642 -0.0134,10.661881 -0.87443,5.089588 -4.3186,10.578166 -4.3186,10.578166 l 1.99832,3.363619 0.94517,-1.470711 c 0,0 3.771,-5.737906 4.82606,-11.878862 0.54637,-3.180032 0.34181,-7.673103 0.0527,-11.515576 -0.28907,-3.842473 -0.70125,-6.974768 -0.70125,-6.974768 -0.0786,-0.592527 -0.1551,-1.185337 -0.23475,-1.777712 l -1.81149,0.111683 c 0,0 -3.56105,0.100301 -6.42183,2.019515 -0.84731,0.568436 -1.52938,1.230909 -2.06964,1.878955 -0.51793,-0.640192 -1.17037,-1.29409 -1.98127,-1.859318 -1.50528,-1.049227 -3.21307,-1.55976 -4.46175,-1.807642 0.0685,-0.412008 0.13944,-0.820645 0.21549,-1.221631 1.60585,-8.466206 4.52169,-13.6797847 4.52169,-13.6797847 z" />
  </g>
</svg>
